<svg viewBox="0 0 48 48" fill="currentColor" xmlns="http://www.w3.org/2000/svg">
<path d="M14.9801 2C15.7781 2 16.5401 2.32 17.1001 2.886L22.0001 7.84V5.5C22.0001 3.568 23.5681 2 25.5001 2H32.5001C34.4321 2 36.0001 3.568 36.0001 5.5V11H38.7441C38.9546 10.9999 39.1628 11.0442 39.3551 11.1298C39.5474 11.2155 39.7195 11.3407 39.8603 11.4973C40.001 11.6539 40.1072 11.8383 40.1719 12.0386C40.2367 12.239 40.2585 12.4507 40.2361 12.66L37.2821 39.984C37.1627 41.0873 36.6399 42.1075 35.8141 42.8488C34.9883 43.59 33.9178 44 32.8081 44H15.1921C14.0827 43.9995 13.0127 43.5893 12.1873 42.8481C11.3619 42.1069 10.8394 41.0869 10.7201 39.984L7.75609 12.664C7.73333 12.4545 7.75496 12.2426 7.81958 12.042C7.8842 11.8415 7.99034 11.6568 8.1311 11.5C8.27187 11.3432 8.44409 11.2178 8.63654 11.132C8.829 11.0462 9.03737 11.0019 9.24809 11.002H12.0001V4.98C12.0001 3.334 13.3341 2 14.9801 2ZM33.0001 11V5.5C33.0001 5.36739 32.9474 5.24021 32.8536 5.14645C32.7599 5.05268 32.6327 5 32.5001 5H25.5001C25.3675 5 25.2403 5.05268 25.1465 5.14645C25.0528 5.24021 25.0001 5.36739 25.0001 5.5V11H33.0001ZM15.0001 5.028V11H20.9061L15.0001 5.028ZM13.7001 39.66C13.74 40.0277 13.9145 40.3678 14.1899 40.6147C14.4652 40.8617 14.8222 40.9982 15.1921 40.998H32.8081C33.178 40.9976 33.5347 40.8606 33.8097 40.6133C34.0847 40.366 34.2586 40.0258 34.2981 39.658L37.0741 14H10.9201L13.7001 39.66ZM23.5841 20.816C23.6298 20.7475 23.6916 20.6914 23.7642 20.6525C23.8367 20.6137 23.9178 20.5934 24.0001 20.5934C24.0824 20.5934 24.1634 20.6137 24.236 20.6525C24.3086 20.6914 24.3704 20.7475 24.4161 20.816L25.7541 22.816C25.9805 23.1338 26.3219 23.3508 26.7058 23.421C27.0896 23.4912 27.4857 23.4091 27.81 23.192C28.1343 22.975 28.3612 22.6401 28.4427 22.2585C28.5241 21.8768 28.4536 21.4785 28.2461 21.148L26.9101 19.148C26.5903 18.6695 26.1574 18.2772 25.6499 18.0059C25.1423 17.7346 24.5756 17.5927 24.0001 17.5927C23.4246 17.5927 22.8579 17.7346 22.3503 18.0059C21.8427 18.2772 21.4099 18.6695 21.0901 19.148L19.7541 21.148C19.5466 21.4785 19.4761 21.8768 19.5575 22.2585C19.6389 22.6401 19.8659 22.975 20.1902 23.192C20.5144 23.4091 20.9105 23.4912 21.2944 23.421C21.6782 23.3508 22.0196 23.1338 22.2461 22.816L23.5841 20.816ZM19.2721 25.2C19.4412 25.3014 19.5887 25.4351 19.7061 25.5936C19.8235 25.752 19.9085 25.9321 19.9563 26.1234C20.004 26.3148 20.0135 26.5136 19.9843 26.7087C19.9551 26.9037 19.8878 27.091 19.7861 27.26L19.0581 28.472C18.9671 28.6238 18.9181 28.797 18.916 28.9739C18.9138 29.1508 18.9586 29.3251 19.0459 29.479C19.1331 29.633 19.2596 29.761 19.4125 29.8501C19.5654 29.9391 19.7392 29.986 19.9161 29.986H21.5001C21.8979 29.986 22.2794 30.144 22.5607 30.4253C22.8421 30.7066 23.0001 31.0882 23.0001 31.486C23.0001 31.8838 22.8421 32.2654 22.5607 32.5467C22.2794 32.828 21.8979 32.986 21.5001 32.986H19.9161C16.8061 32.986 14.8861 29.594 16.4861 26.928L17.2141 25.714C17.4188 25.3729 17.7507 25.1272 18.1366 25.0308C18.5226 24.9344 18.931 24.9953 19.2721 25.2ZM28.2181 27.258C28.1168 27.089 28.0499 26.9017 28.021 26.7068C27.9921 26.5119 28.0019 26.3132 28.0499 26.1221C28.0978 25.931 28.1829 25.7512 28.3003 25.593C28.4177 25.4348 28.5651 25.3013 28.7341 25.2C28.9031 25.0988 29.0904 25.0318 29.2853 25.0029C29.4802 24.9741 29.6789 24.9839 29.87 25.0318C30.0611 25.0797 30.2409 25.1648 30.3991 25.2822C30.5573 25.3996 30.6908 25.547 30.7921 25.716L31.5201 26.93C33.1161 29.596 31.1961 32.986 28.0881 32.986H26.5001C26.1023 32.986 25.7207 32.828 25.4394 32.5467C25.1581 32.2654 25.0001 31.8838 25.0001 31.486C25.0001 31.0882 25.1581 30.7066 25.4394 30.4253C25.7207 30.144 26.1023 29.986 26.5001 29.986H28.0881C28.265 29.986 28.4388 29.9391 28.5917 29.8501C28.7446 29.761 28.8711 29.633 28.9583 29.479C29.0455 29.3251 29.0904 29.1508 29.0882 28.9739C29.0861 28.797 29.037 28.6238 28.9461 28.472L28.2181 27.258Z" fill="#15C72F"/>
</svg>
