<svg viewBox="0 0 24 24" fill="currentColor" xmlns="http://www.w3.org/2000/svg">
<path d="M0.88623 0.84668V18.1543C5.26876 11.8416 12.6295 7.39793 20.1736 6.27012L10.7072 0.84668H0.88623ZM15.2681 8.40607C9.39283 10.4977 4.05025 14.5807 0.851121 19.808V21.3831C6.15146 16.1571 13.8355 13.1153 21.2124 13.1682L15.2681 8.40602V8.40607ZM16.4663 14.438C10.5967 15.4525 4.88936 18.3568 0.851074 22.6324V23.115H3.61276C8.95183 20.041 15.3862 18.6467 21.4015 19.3269L16.4663 14.438V14.438ZM16.3607 20.108C12.6049 20.3839 8.8404 21.4185 5.45706 23.1151H17.9455L16.3607 20.108Z" />
</svg>
