<svg viewBox="0 0 24 24" fill="currentColor" xmlns="http://www.w3.org/2000/svg">
<path d="M5.69065 1.54688V2.95312H9.35159V1.54688H5.69065ZM6.20627 3.79688C5.43752 4.57406 4.19299 5.9625 4.19299 7.125V8.95312H10.8516V7.125C10.8516 5.9625 9.6094 4.57406 8.83596 3.79688H6.20627ZM4.19299 9.79688V10.5469H10.8516V9.79688H4.19299ZM4.19299 11.3906V12.1406H10.8516V11.3906H4.19299ZM4.19299 12.9844V13.7344H10.8516V12.9844H4.19299ZM4.19299 14.5781V22.5563C6.21096 23.1516 8.83127 23.1516 10.8516 22.5563V14.5781H4.19299ZM14.7328 16.1719L15.4031 22.8281H16.1719L15.8485 17.2734L16.6922 17.2266L17.0156 22.8281H19.1391L19.8094 16.1719H14.7328Z"/>
</svg>
