<svg viewBox="0 0 36 36" fill="none" xmlns="http://www.w3.org/2000/svg">
<g clip-path="url(#clip0_393_103)">
<path d="M15.4491 25.9253V31.0656C15.4424 31.2589 15.3609 31.442 15.2218 31.5763C15.0826 31.7107 14.8968 31.7857 14.7034 31.7856H9.30851C8.42062 31.636 7.61685 31.1702 7.04565 30.4742" stroke="currentColor" stroke-width="1.5" stroke-linecap="round" stroke-linejoin="round"/>
<path d="M26.6295 16.3908L30.4327 13.8194C30.5178 13.7818 30.6097 13.7625 30.7027 13.7625C30.7957 13.7625 30.8876 13.7818 30.9727 13.8194C31.072 13.831 31.1675 13.8648 31.252 13.9182C31.3366 13.9716 31.4081 14.0433 31.4613 14.128L34.4184 18.5508C34.5951 18.9064 34.687 19.2981 34.687 19.6951C34.687 20.0922 34.5951 20.4838 34.4184 20.8394M7.04555 30.4977C7.04555 30.4977 4.24269 28.0574 10.7484 21.5568H13.6515L9.30583 14.3851H1.31641L3.50212 17.188C3.50212 17.188 2.03641 17.4451 2.03641 19.4765C2.80636 23.4979 4.52546 27.2773 7.05069 30.5003L7.04555 30.4977Z" stroke="currentColor" stroke-width="1.5" stroke-linecap="round" stroke-linejoin="round"/>
<path d="M11.2113 11.0188L7.73982 9.42453C7.5686 9.33606 7.4367 9.18671 7.37007 9.00586C7.30345 8.82502 7.30693 8.62579 7.37982 8.44738L10.3113 2.58967C10.5071 2.24256 10.7809 1.94572 11.1112 1.72259C11.4414 1.49946 11.819 1.35614 12.2141 1.30396M34.5187 20.5794C34.5187 20.5794 33.6958 23.9222 25.1895 23.1508V20.9137L20.2035 27.4425L24.935 34.7145L25.1921 31.2945C25.1921 31.2945 26.141 32.4517 27.761 31.2945C30.4762 28.0365 32.7485 24.4335 34.5187 20.5794Z" stroke="currentColor" stroke-width="1.5" stroke-linecap="round" stroke-linejoin="round"/>
<path d="M12.2117 1.3039C12.2117 1.3039 15.3745 1.3039 19.3808 9.01562L17.298 11.587H25.9354L28.9954 3.51276L25.3954 4.61847C25.3426 4.06099 25.1404 3.52809 24.81 3.07597C24.4796 2.62384 24.0333 2.26926 23.5182 2.04962C21.7471 1.46523 19.8834 1.21243 18.0205 1.3039H12.2117Z" stroke="currentColor" stroke-width="1.5" stroke-linecap="round" stroke-linejoin="round"/>
</g>
<defs>
<clipPath id="clip0_393_103">
<rect width="36" height="36" fill="none"/>
</clipPath>
</defs>
</svg>
