<svg viewBox="0 0 24 24" fill="currentColor" xmlns="http://www.w3.org/2000/svg">
<g clip-path="url(#clip0_632_148)">
<path d="M17.1586 6.84369C16.7686 6.4536 16.5403 5.93069 16.5193 5.37951C16.4982 4.82834 16.6861 4.28955 17.0452 3.87088C17.0749 3.83606 17.0903 3.7913 17.0884 3.74557C17.0865 3.69985 17.0673 3.65653 17.0348 3.62431L14.9663 1.55338C14.9321 1.5192 14.8857 1.5 14.8373 1.5C14.789 1.5 14.7426 1.5192 14.7084 1.55338L11.4113 4.85056C11.2896 4.97217 11.1979 5.12047 11.1436 5.28369C11.0894 5.44727 10.9979 5.59599 10.8763 5.71804C10.7546 5.84009 10.6062 5.93211 10.4428 5.98681C10.2795 6.04123 10.1311 6.13286 10.0092 6.25447L1.55344 14.7084C1.51926 14.7426 1.50006 14.7889 1.50006 14.8373C1.50006 14.8856 1.51926 14.932 1.55344 14.9662L3.62203 17.0348C3.65425 17.0673 3.69756 17.0864 3.74329 17.0883C3.78902 17.0902 3.83377 17.0748 3.86859 17.0451C4.28717 16.6856 4.82609 16.4975 5.37745 16.5184C5.92881 16.5393 6.45193 16.7677 6.84209 17.1579C7.23224 17.548 7.46063 18.0711 7.48154 18.6225C7.50245 19.1739 7.31433 19.7128 6.95484 20.1313C6.92514 20.1662 6.9097 20.2109 6.91162 20.2567C6.91353 20.3024 6.93265 20.3457 6.96516 20.3779L9.03375 22.4465C9.06794 22.4807 9.11431 22.4999 9.16266 22.4999C9.211 22.4999 9.25737 22.4807 9.29156 22.4465L17.7478 13.9907C17.8694 13.8689 17.961 13.7204 18.0155 13.5571C18.0696 13.3935 18.1612 13.2448 18.2828 13.1228C18.4044 13.0007 18.5528 12.9087 18.7163 12.854C18.8795 12.7997 19.0278 12.708 19.1494 12.5863L22.4466 9.28916C22.4807 9.25496 22.4999 9.2086 22.4999 9.16025C22.4999 9.11191 22.4807 9.06554 22.4466 9.03135L20.378 6.96275C20.3458 6.93025 20.3024 6.91112 20.2567 6.90921C20.211 6.9073 20.1662 6.92274 20.1314 6.95244C19.7133 7.31215 19.1749 7.50078 18.6237 7.48061C18.0725 7.46045 17.5493 7.23298 17.1586 6.84369Z" stroke="black" stroke-width="1.1" stroke-miterlimit="10"/>
<path d="M11.7422 6.58323L10.9683 5.80933M13.8056 8.64667L13.2895 8.13105M15.869 10.7106L15.3534 10.1945M18.1908 13.0318L17.4169 12.2579" stroke="black" stroke-width="1.1" stroke-miterlimit="10" stroke-linecap="round"/>
</g>
<defs>
<clipPath id="clip0_632_148">
<rect width="24" height="24"/>
</clipPath>
</defs>
</svg>
