<svg width="24" height="24" viewBox="0 0 24 24" fill="currentColor" xmlns="http://www.w3.org/2000/svg">
<path d="M17.25 8.39719V7.875C17.25 5.52375 13.7035 3.75 9.00003 3.75C4.29659 3.75 0.750031 5.52375 0.750031 7.875V11.625C0.750031 13.5834 3.21097 15.1397 6.75003 15.6056V16.125C6.75003 18.4763 10.2966 20.25 15 20.25C19.7035 20.25 23.25 18.4763 23.25 16.125V12.375C23.25 10.4344 20.8669 8.87625 17.25 8.39719ZM21.75 12.375C21.75 13.6144 18.8635 15 15 15C14.6503 15 14.3035 14.9878 13.9613 14.9653C15.9835 14.2284 17.25 13.0313 17.25 11.625V9.91313C20.0503 10.3303 21.75 11.4628 21.75 12.375ZM6.75003 14.0859V11.8556C7.49608 11.9528 8.24768 12.001 9.00003 12C9.75238 12.001 10.504 11.9528 11.25 11.8556V14.0859C10.5051 14.196 9.75305 14.2508 9.00003 14.25C8.24701 14.2508 7.49496 14.196 6.75003 14.0859ZM15.75 10.3059V11.625C15.75 12.4116 14.5866 13.2563 12.75 13.7691V11.5781C13.9603 11.2847 14.985 10.8478 15.75 10.3059ZM9.00003 5.25C12.8635 5.25 15.75 6.63563 15.75 7.875C15.75 9.11438 12.8635 10.5 9.00003 10.5C5.13659 10.5 2.25003 9.11438 2.25003 7.875C2.25003 6.63563 5.13659 5.25 9.00003 5.25ZM2.25003 11.625V10.3059C3.01503 10.8478 4.03972 11.2847 5.25003 11.5781V13.7691C3.41347 13.2563 2.25003 12.4116 2.25003 11.625ZM8.25003 16.125V15.7341C8.49659 15.7434 8.74597 15.75 9.00003 15.75C9.36378 15.75 9.71909 15.7378 10.0678 15.7172C10.4553 15.8559 10.8499 15.9735 11.25 16.0697V18.2691C9.41347 17.7563 8.25003 16.9116 8.25003 16.125ZM12.75 18.5859V16.35C13.4958 16.4503 14.2475 16.5004 15 16.5C15.7524 16.501 16.504 16.4528 17.25 16.3556V18.5859C15.758 18.8046 14.2421 18.8046 12.75 18.5859ZM18.75 18.2691V16.0781C19.9603 15.7847 20.985 15.3478 21.75 14.8059V16.125C21.75 16.9116 20.5866 17.7563 18.75 18.2691Z"/>
</svg>
