<svg width="24" height="24" viewBox="0 0 24 24" fill="none" xmlns="http://www.w3.org/2000/svg">
<path d="M15.3146 22.1101C15.6763 22.1101 16.0277 22.0197 16.3192 21.8487L21.5824 18.8659C22.1752 18.5341 22.4464 18.052 22.4464 17.3787V3.44757C22.4464 2.70442 22.035 2.29257 21.3112 2.29257C21.06 2.29257 20.799 2.37271 20.4776 2.55399L15.144 5.51585L9.68959 2.17128C9.38605 1.98906 9.03904 1.89195 8.68502 1.89014C8.31345 1.89014 7.95216 1.99042 7.64059 2.17128L2.42745 5.14471C1.82488 5.48628 1.55316 5.96842 1.55316 6.64128V20.5531C1.55316 21.2963 1.9753 21.7184 2.68888 21.7184C2.94988 21.7184 3.20102 21.628 3.5323 21.4471L8.63488 18.6948L14.1896 21.8089C14.5612 22.0094 14.943 22.1101 15.3146 22.1101ZM3.31159 19.639C3.22073 19.639 3.17059 19.579 3.17059 19.4783V7.03299C3.17059 6.79214 3.2713 6.62157 3.5023 6.48057L7.63073 4.06985C7.75073 3.99957 7.86173 3.93914 7.98216 3.86885V17.098L3.45216 19.5889C3.40159 19.609 3.35145 19.639 3.31159 19.639ZM14.4009 19.9506C14.2599 19.87 14.1094 19.7997 13.9586 19.7191L9.59916 17.2587V4.08014C9.70973 4.14057 9.8203 4.20099 9.92059 4.26099L14.4009 6.99314V19.9506ZM16.0179 20.1314V6.89242L20.5479 4.42128C20.6079 4.39128 20.6584 4.37114 20.6987 4.37114C20.7789 4.37114 20.829 4.43114 20.829 4.53185V16.9776C20.829 17.2283 20.739 17.3993 20.5076 17.5398L16.4799 19.8799C16.3192 19.9707 16.1683 20.0611 16.0179 20.1314Z" fill="#040F0F"/>
</svg>
