<svg width="24" height="24" viewBox="0 0 24 24" fill="none" xmlns="http://www.w3.org/2000/svg">
<g clip-path="url(#clip0_383_154)">
<path d="M10.2995 17.2832V20.7101C10.295 20.8389 10.2407 20.961 10.1479 21.0506C10.0552 21.1401 9.93125 21.1901 9.80232 21.1901H6.20575C5.61382 21.0903 5.07797 20.7798 4.69717 20.3158" stroke="#040F0F" stroke-width="1.5" stroke-linecap="round" stroke-linejoin="round"/>
<path d="M17.7531 10.9271L20.2886 9.21277C20.3453 9.18773 20.4066 9.1748 20.4686 9.1748C20.5306 9.1748 20.5919 9.18773 20.6486 9.21277C20.7148 9.22051 20.7784 9.24302 20.8348 9.27862C20.8912 9.31422 20.9388 9.36202 20.9743 9.41848L22.9457 12.3671C23.0635 12.6041 23.1248 12.8652 23.1248 13.1299C23.1248 13.3946 23.0635 13.6557 22.9457 13.8928M4.69714 20.3316C4.69714 20.3316 2.82857 18.7048 7.16572 14.3711H9.10114L6.204 9.58991H0.877716L2.33486 11.4585C2.33486 11.4585 1.35772 11.6299 1.35772 12.9842C1.87102 15.6651 3.01709 18.1847 4.70057 20.3333L4.69714 20.3316Z" stroke="#040F0F" stroke-width="1.5" stroke-linecap="round" stroke-linejoin="round"/>
<path d="M7.47424 7.34571L5.15995 6.28285C5.04581 6.22388 4.95787 6.12431 4.91345 6.00375C4.86904 5.88318 4.87136 5.75036 4.91995 5.63143L6.87424 1.72628C7.0048 1.49487 7.18737 1.29698 7.40752 1.14823C7.62768 0.999475 7.8794 0.903931 8.14281 0.869141M23.0125 13.7194C23.0125 13.7194 22.464 15.948 16.7931 15.4337V13.9423L13.4691 18.2949L16.6234 23.1429L16.7948 20.8629C16.7948 20.8629 17.4274 21.6343 18.5074 20.8629C20.3176 18.6908 21.8324 16.2888 23.0125 13.7194Z" stroke="#040F0F" stroke-width="1.5" stroke-linecap="round" stroke-linejoin="round"/>
<path d="M8.14124 0.869104C8.14124 0.869104 10.2498 0.869104 12.9207 6.01025L11.5321 7.72453H17.2904L19.3304 2.34168L16.9304 3.07882C16.8952 2.70717 16.7604 2.3519 16.5401 2.05048C16.3199 1.74907 16.0223 1.51268 15.6789 1.36625C14.4982 0.976658 13.2557 0.808126 12.0138 0.869104H8.14124Z" stroke="#040F0F" stroke-width="1.5" stroke-linecap="round" stroke-linejoin="round"/>
</g>
<defs>
<clipPath id="clip0_383_154">
<rect width="24" height="24" fill="white"/>
</clipPath>
</defs>
</svg>
